<svg width="48" height="48" viewBox="0 0 48 48" fill="none" xmlns="http://www.w3.org/2000/svg">
<g clip-path="url(#clip0_196_30)">
<path d="M41.9912 10.1508L33.5059 10.1508L25.7278 17.9289L29.9704 22.1716L41.9912 10.1508Z" stroke="white" stroke-width="2" stroke-linejoin="round"/>
<path d="M32.7988 37.7278L32.0917 38.4349C32.2793 38.6225 32.5336 38.7278 32.7988 38.7278L32.7988 37.7278ZM41.2841 37.7278L41.2841 38.7278C41.6886 38.7278 42.0532 38.4842 42.208 38.1105C42.3628 37.7368 42.2772 37.3067 41.9912 37.0207L41.2841 37.7278ZM23.6065 28.5355L24.3136 27.8283C24.126 27.6408 23.8717 27.5355 23.6065 27.5355C23.3412 27.5355 23.0869 27.6408 22.8993 27.8283L23.6065 28.5355ZM21.0088 31.1331L20.3017 30.426C20.0287 30.699 19.9373 31.1047 20.0667 31.4684L21.0088 31.1331ZM16.7662 26.8905L16.4309 27.8326C16.7946 27.962 17.2003 27.8705 17.4733 27.5976L16.7662 26.8905ZM19.3638 24.2928L20.0709 24.9999C20.4614 24.6094 20.4614 23.9762 20.0709 23.5857L19.3638 24.2928ZM16.0591 20.9881L16.7662 20.2809C16.4932 20.008 16.0875 19.9165 15.7238 20.0459L16.0591 20.9881ZM20.3017 16.7454L19.3596 16.4101C19.2301 16.7738 19.3216 17.1795 19.5946 17.4525L20.3017 16.7454ZM32.7988 38.7278L41.2841 38.7278L41.2841 36.7278L32.7988 36.7278L32.7988 38.7278ZM22.8993 29.2426L32.0917 38.4349L33.5059 37.0207L24.3136 27.8283L22.8993 29.2426ZM21.7159 31.8402L24.3136 29.2426L22.8993 27.8283L20.3017 30.426L21.7159 31.8402ZM20.0709 39.1421C22.3286 36.8844 22.9533 33.6144 21.9509 30.7978L20.0667 31.4684C20.82 33.5851 20.3481 36.0365 18.6567 37.7278L20.0709 39.1421ZM8.75721 39.1421C11.8814 42.2662 16.9467 42.2662 20.0709 39.1421L18.6567 37.7278C16.3136 40.071 12.5146 40.071 10.1714 37.7278L8.75721 39.1421ZM8.75721 27.8283C5.63302 30.9525 5.63302 36.0179 8.75721 39.1421L10.1714 37.7278C7.82828 35.3847 7.82828 31.5857 10.1714 29.2426L8.75721 27.8283ZM17.1015 25.9483C14.2848 24.9459 11.0149 25.5707 8.75721 27.8283L10.1714 29.2426C11.8628 27.5512 14.3142 27.0793 16.4309 27.8326L17.1015 25.9483ZM18.6567 23.5857L16.0591 26.1834L17.4733 27.5976L20.0709 24.9999L18.6567 23.5857ZM15.3519 21.6952L18.6567 24.9999L20.0709 23.5857L16.7662 20.2809L15.3519 21.6952ZM8.0501 20.0502C10.3078 22.3078 13.5777 22.9326 16.3943 21.9302L15.7238 20.0459C13.607 20.7993 11.1557 20.3273 9.46432 18.636L8.0501 20.0502ZM8.05011 8.73646C4.92591 11.8607 4.92591 16.926 8.0501 20.0502L9.46432 18.636C7.12117 16.2928 7.12117 12.4938 9.46432 10.1507L8.05011 8.73646ZM19.3638 8.73646C16.2396 5.61227 11.1743 5.61227 8.05011 8.73646L9.46432 10.1507C11.8075 7.80753 15.6065 7.80753 17.9496 10.1507L19.3638 8.73646ZM21.2438 17.0807C22.2462 14.2641 21.6215 10.9941 19.3638 8.73646L17.9496 10.1507C19.641 11.8421 20.1129 14.2934 19.3596 16.4101L21.2438 17.0807ZM41.9912 37.0207L21.0088 16.0383L19.5946 17.4525L40.577 38.4349L41.9912 37.0207Z" fill="white"/>
<circle cx="14.4141" cy="33.4852" r="3" transform="rotate(135 14.4141 33.4852)" fill="white"/>
<circle cx="13.7071" cy="14.3933" r="3" transform="rotate(135 13.7071 14.3933)" fill="white"/>
</g>
<defs>
<clipPath id="clip0_196_30">
<rect width="48" height="48" fill="white"/>
</clipPath>
</defs>
</svg>
