<svg width="48" height="48" viewBox="0 0 48 48" fill="none" xmlns="http://www.w3.org/2000/svg">
<mask id="path-1-inside-1_102_1688" fill="white">
<path fill-rule="evenodd" clip-rule="evenodd" d="M24 6L8 20V42H20V30H28V42H40V20L24 6Z"/>
</mask>
<path d="M8 20L6.68299 18.4948L6 19.0925V20H8ZM24 6L25.317 4.49485L24 3.34246L22.683 4.49485L24 6ZM8 42H6V44H8V42ZM20 42V44H22V42H20ZM20 30V28H18V30H20ZM28 30H30V28H28V30ZM28 42H26V44H28V42ZM40 42V44H42V42H40ZM40 20H42V19.0925L41.317 18.4948L40 20ZM9.31701 21.5052L25.317 7.50515L22.683 4.49485L6.68299 18.4948L9.31701 21.5052ZM10 42V20H6V42H10ZM20 40H8V44H20V40ZM22 42V30H18V42H22ZM20 32H28V28H20V32ZM26 30V42H30V30H26ZM40 40H28V44H40V40ZM38 20V42H42V20H38ZM22.683 7.50515L38.683 21.5052L41.317 18.4948L25.317 4.49485L22.683 7.50515Z" fill="white" mask="url(#path-1-inside-1_102_1688)"/>
</svg>
