<svg width="48" height="48" viewBox="0 0 48 48" fill="none" xmlns="http://www.w3.org/2000/svg">
<rect x="5" y="20" width="9" height="22" stroke="white" stroke-width="2"/>
<path d="M28.2067 5.94555L27.4996 5.23844V5.23844L28.2067 5.94555ZM33.137 9.12023L32.2007 8.76911L33.137 9.12023ZM14.0002 20.152V21.152C14.2654 21.152 14.5198 21.0467 14.7073 20.8591L14.0002 20.152ZM14 20.152V19.152C13.4477 19.152 13 19.5998 13 20.152H14ZM14 41.9999H13C13 42.5522 13.4477 42.9999 14 42.9999V41.9999ZM39.2114 37.5889L38.2471 37.324L39.2114 37.5889ZM42.6106 25.2113L43.5749 25.4761L42.6106 25.2113ZM29.0001 20.152L28.0637 19.8009C27.9486 20.108 27.9913 20.4521 28.1781 20.7216C28.365 20.9912 28.6721 21.152 29.0001 21.152V20.152ZM28.9138 6.65266C30.4347 5.13174 32.9559 6.75518 32.2007 8.76911L34.0733 9.47136C35.5838 5.44348 30.5414 2.19664 27.4996 5.23844L28.9138 6.65266ZM14.7073 20.8591L28.9138 6.65265L27.4996 5.23844L13.2931 19.4449L14.7073 20.8591ZM14 21.152H14.0002V19.152H14V21.152ZM15 20.1522V20.152H13V20.1522H15ZM15 41.9999V20.1522H13V41.9999H15ZM33.4256 40.9999H14V42.9999H33.4256V40.9999ZM38.2471 37.324C37.6509 39.4951 35.6771 40.9999 33.4256 40.9999V42.9999C36.5777 42.9999 39.341 40.8932 40.1757 37.8537L38.2471 37.324ZM41.6463 24.9465L38.2471 37.324L40.1757 37.8537L43.5749 25.4761L41.6463 24.9465ZM38.7534 21.152C40.7337 21.152 42.1707 23.0369 41.6463 24.9465L43.5749 25.4761C44.4489 22.2935 42.0539 19.152 38.7534 19.152V21.152ZM29.0001 21.152H38.7534V19.152H29.0001V21.152ZM32.2007 8.76911L28.0637 19.8009L29.9364 20.5032L34.0733 9.47136L32.2007 8.76911Z" fill="white"/>
</svg>
